<?xml version="1.0" encoding="UTF-8" standalone="no"?>
<svg
   width="256"
   height="256"
   viewBox="0 0 256 256"
   version="1.1"
   xmlns="http://www.w3.org/2000/svg"
   xmlns:svg="http://www.w3.org/2000/svg">
  <path style="fill:none;stroke:#000000;stroke-width:20;stroke-linecap:round;stroke-linejoin:round" d="M 100 120 V 84 M 122 120 V 70 M 144 120 V 70 M 166 120 V 84" />
  <path style="fill:none;stroke:#000000;stroke-width:20;stroke-linecap:round;stroke-linejoin:round" d="M 95 140 Q 62 136 66 164 Q 72 182 98 182" />
  <path style="fill:none;stroke:#000000;stroke-width:20;stroke-linecap:round;stroke-linejoin:round" d="M 92 120 A 10 10 0 0 1 102 110 H 158 A 10 10 0 0 1 168 120 V 172 A 10 10 0 0 1 158 182 H 102 A 10 10 0 0 1 92 172 Z" />
  <path style="fill:none;stroke:#000000;stroke-width:20;stroke-linecap:round;stroke-linejoin:round" d="M 178 100 Q 192 92 202 104 M 206 124 Q 216 118 226 128" />
</svg>
